<svg xmlns="http://www.w3.org/2000/svg" width="137.411" height="24.697"><path fill="#312B2C" d="M137.411 24.697l-5.308-3.318-4.836 3.025-4.813-3.002-4.772 2.967-4.812-3.006-4.813 3.006-4.836-3.031-4.954 3.146-4.816-3.006-4.726 2.916-4.895-3.086-4.837 3.031-4.814-3.004-4.867 3.061-4.844-3.031-4.869 3.062-4.839-3.035-5.287 3.305v-21.301l5.287-3.309 4.839 3.031 4.869-3.059 4.841 3.029 4.868-3.061 4.813 3.004 4.84-3.031 4.9 3.092 4.722-2.914 4.809 3.002 4.955-3.15 4.842 3.031 4.812-3 4.813 3.002 4.771-2.963 4.812 3.004 4.838-3.029 5.308 3.322v21.3zm-43.959-4.32l4.809 3.002 4.955-3.148 4.842 3.035 4.812-3.006 4.813 3.006 4.771-2.967 4.812 3.002 4.838-3.027 4.37 2.734v-19.094l-4.37-2.736-4.836 3.029-4.813-3.004-4.772 2.963-4.812-3.002-4.813 3.002-4.836-3.029-4.954 3.15-4.816-3.006-4.726 2.914-4.895-3.09-4.837 3.033-4.814-3.004-4.867 3.061-4.844-3.029-4.869 3.059-4.839-3.031-4.352 2.721v19.094l4.352-2.721 4.839 3.033 4.869-3.062 4.841 3.033 4.868-3.059 4.813 3.002 4.841-3.031 4.9 3.088 4.72-2.915z"/><g fill="#312B2C"><path d="M63.535 14.221v1.217c-.444.232-.896.408-1.352.527-.461.121-.916.18-1.365.18-.432 0-.847-.055-1.236-.168-.394-.113-.764-.281-1.113-.506-.562-.365-.997-.836-1.308-1.406-.312-.57-.468-1.191-.468-1.861 0-.504.104-.998.309-1.475.204-.477.495-.895.875-1.25.402-.381.854-.666 1.354-.855.502-.189 1.056-.283 1.664-.283.425 0 .846.049 1.263.145.418.098.854.252 1.312.459v1.172c-.478-.258-.93-.451-1.35-.574-.422-.123-.831-.186-1.226-.186-.883 0-1.611.273-2.188.822-.574.549-.862 1.238-.862 2.066 0 .814.284 1.498.85 2.047.567.549 1.278.824 2.136.824.438 0 .884-.074 1.333-.221.45-.149.906-.374 1.372-.674zM65.251 16.01v-7.551h1.081v7.551h-1.081zM70.887 16.064l-3.326-7.605h1.128l2.352 5.387 2.405-5.387h1.11l-3.388 7.605h-.281zM75.676 16.01v-7.551h1.081v7.551h-1.081zM78.883 16.01v-7.551h1.068v6.58h3.597v.971h-4.665zM84.962 16.01v-7.551h1.078v7.551h-1.078zM87.403 16.01l4.966-6.602h-4.609v-.949h6.478v.123l-4.875 6.498h4.875v.93h-6.835zM95.18 16.01l3.271-7.551h.786l3.318 7.551h-1.119l-.97-2.221h-3.219l-.962 2.221h-1.105zm2.489-3.196h2.355l-1.194-2.721-1.161 2.721zM105.185 16.01v-6.57h-2.774v-.98h6.625v.98h-2.775v6.57h-1.076zM110.449 16.01v-7.551h1.082v7.551h-1.082zM113.104 12.203c0-.5.103-.99.309-1.467.205-.475.497-.895.874-1.258.384-.369.82-.652 1.305-.85.487-.193.998-.289 1.536-.289.545 0 1.066.098 1.558.295.491.195.923.477 1.298.844.394.381.687.805.885 1.273.198.467.296.975.296 1.523 0 .514-.101 1.01-.304 1.48-.203.475-.493.891-.868 1.25-.391.377-.83.66-1.313.852-.482.191-1.002.287-1.551.287-.538 0-1.05-.098-1.541-.295-.493-.199-.927-.48-1.3-.844-.39-.377-.684-.803-.884-1.277-.199-.475-.3-.983-.3-1.524zm1.15.041c0 .383.07.748.217 1.1.143.348.35.66.62.93.262.268.571.477.926.625.354.145.724.217 1.11.217.397 0 .766-.07 1.114-.213.346-.143.657-.354.931-.629.269-.27.479-.582.624-.93.147-.352.218-.717.218-1.1 0-.385-.07-.752-.217-1.096-.144-.344-.356-.656-.636-.939-.268-.279-.579-.492-.929-.637s-.719-.217-1.105-.217c-.375 0-.739.072-1.089.221-.353.146-.668.357-.947.633-.271.26-.478.57-.62.922-.147.353-.217.723-.217 1.113zM122.547 16.01v-7.551h.938l4.973 5.861v-5.861h1.074v7.551h-.963l-4.955-5.867v5.867h-1.067z"/></g><g fill="#312B2C"><path d="M1.879 12.143l.025.023c.5-.791 1.074-1.52 2.161-1.52s1.688.895 1.688 1.893c0 2.441-2.16 3.732-3.655 3.732-1.037 0-1.856-.445-1.856-1.471 0-.662.104-1.123.628-5.549l.154-1.305c0-.434-.357-.357-.667-.357-.169.001-.357.015-.357-.216 0-.102.113-.205.216-.219 1.625-.178 1.831-.293 2.008-.293.181 0 .245.104.245.268 0 .205-.194 1.676-.294 2.508l-.296 2.506zm.513 3.683c1.1 0 1.904-1.561 1.904-2.787 0-.475-.153-1.447-.935-1.447-1.023 0-1.854 1.676-1.854 3.135 0 .599.194 1.099.885 1.099zM12.594 10.838c.192 0 .231.064.231.205 0 .332-.64 2.686-.64 3.645 0 .178-.014.512.243.512.422 0 .611-.678.843-.678.115 0 .18.049.18.166 0 .307-.754 1.584-2.011 1.584-.509 0-.661-.445-.661-.832 0-.611.088-1.264.126-1.662l-.024-.025c-.436.846-1.228 2.52-2.748 2.52-.627 0-.782-.422-.782-.832 0-.51.499-2.863.499-3.297 0-.217-.09-.357-.294-.357-.435 0-.421.818-.741.818-.091 0-.179-.039-.179-.205 0-.627.831-1.752 1.84-1.752.562 0 .779.42.779 1.125 0 .652-.435 2.531-.435 2.992 0 .178.014.436.308.436.665 0 2.009-2.559 2.341-4.016.038-.168.076-.346.217-.346h.908zM15.202 11.619c0-.436-.882-.205-.882-.553 0-.141.128-.215.384-.229 1.252-.062 1.726-.191 1.917-.191.063 0 .18.037.18.115 0 .217-.756 3.016-.756 4.039 0 .154.053.398.282.398.423 0 .626-.742.907-.742.103 0 .168.064.168.154 0 .279-.692 1.66-1.997 1.66-.639 0-.766-.562-.766-1.139.001-.904.563-3.449.563-3.512zm1.955-3.096c0 .191-.663.959-.907.959-.256 0-.716-.768-.716-.959s.665-.959.909-.959c.254 0 .714.768.714.959zM18.474 15.096c0-.498.077-.652.729-5.844.117-.971.153-1.176.153-1.305 0-.434-.356-.357-.663-.357-.169 0-.359.014-.359-.217 0-.102.117-.205.217-.219 1.625-.178 1.83-.293 2.007-.293.182 0 .245.104.245.268 0 .641-.857 7.236-.857 7.52 0 .281.053.551.357.551.487 0 .651-.82.987-.82.051 0 .138.051.138.143 0 .434-.742 1.75-1.956 1.75-.665-.002-.998-.576-.998-1.177zM24.459 11.488c-.141.986-.422 2.52-.422 2.969 0 .318.141.586.499.586.474 0 .718-.752.997-.752.127 0 .166.062.166.178 0 .295-.766 1.803-2.046 1.803-.459 0-1.035-.217-1.035-1.316 0-.816.435-3.25.435-3.4 0-.066-.077-.066-.627-.066-.102 0-.178-.074-.153-.203 0-.152 1.023-.92 1.318-1.24.396-.422.739-.959.982-.959.104 0 .23.037.23.152l-.242 1.6h1.162c.256 0 .256.102.256.332 0 .193 0 .318-.256.318h-1.264zM32.252 12.143l.027.023c.498-.791 1.073-1.52 2.16-1.52s1.688.895 1.688 1.893c0 2.441-2.159 3.732-3.658 3.732-1.035 0-1.854-.445-1.854-1.471 0-.662.102-1.123.627-5.549.114-.971.152-1.176.152-1.305 0-.434-.357-.357-.664-.357-.166 0-.358.014-.358-.217 0-.102.115-.205.219-.219 1.622-.178 1.827-.293 2.005-.293.182 0 .245.104.245.268 0 .205-.19 1.676-.293 2.508l-.296 2.507zm.512 3.683c1.1 0 1.907-1.561 1.907-2.787 0-.475-.155-1.447-.935-1.447-1.023 0-1.854 1.676-1.854 3.135.001.599.191 1.099.882 1.099zM38.377 10.646c.986 0 1.572 1.648 2.57 3.746.307-.525.59-1.354.59-1.994s-.449-.896-.449-1.229c0-.191.256-.523.652-.523.473 0 .576.357.576.779 0 1.535-2.24 7.197-4.617 7.197-.64 0-.794-.473-.794-.752 0-.41.283-.588.525-.588.625 0 .575.383 1.112.383.588 0 1.495-1.355 1.495-1.752 0-.447-1.546-4.078-2.224-4.078-.602 0-.447 1.035-.741 1.035-.115 0-.204-.064-.204-.295.001-.649.575-1.929 1.509-1.929z"/></g></svg>