<?xml version="1.0" encoding="utf-8"?>
<!-- Generator: Adobe Illustrator 16.0.0, SVG Export Plug-In . SVG Version: 6.00 Build 0)  -->
<!DOCTYPE svg PUBLIC "-//W3C//DTD SVG 1.1//EN" "http://www.w3.org/Graphics/SVG/1.1/DTD/svg11.dtd">
<svg version="1.1" id="Layer_1" xmlns="http://www.w3.org/2000/svg" xmlns:xlink="http://www.w3.org/1999/xlink" x="0px" y="0px"
	 width="257.787px" height="115.522px" viewBox="0 0 257.787 115.522" enable-background="new 0 0 257.787 115.522"
	 xml:space="preserve">
<g>
	<text transform="matrix(1 0 0 1 0 109.229)"><tspan x="0" y="0" fill="#FFF1CC" font-family="'GothamRounded-Medium'" font-size="22.884" letter-spacing="6">KALAKALA C</tspan><tspan x="221.836" y="0" fill="#FFF1CC" font-family="'GothamRounded-Medium'" font-size="22.884" letter-spacing="4">O</tspan><tspan x="245.636" y="0" fill="#FFF1CC" font-family="'GothamRounded-Medium'" font-size="22.884" letter-spacing="6">.</tspan></text>
	<g>
		<path fill="#FFF1CC" d="M44.747,49.74l0.028-0.001h18.896c0.008,0,0.018,0.001,0.027,0.001l0.028-0.001h68.991h18.95h26.188
			l0.03,0.001c0.011,0,0.018-0.001,0.027-0.001h18.895l0.028,0.001c0.567,0,1.028-0.462,1.028-1.031c0-0.2-0.059-0.386-0.155-0.543
			l-0.011-0.021c-8.177-12.74-24.915-20.729-44.082-20.896l-0.415-0.002h-18.952H82.742h-18.95c-11.089,0-20.079,8.99-20.079,20.079
			v1.299l0.001,0.086C43.715,49.278,44.178,49.74,44.747,49.74z M165.787,35.174c2.012,0,3.642,1.63,3.642,3.64
			s-1.63,3.641-3.642,3.641c-2.009,0-3.64-1.63-3.64-3.641S163.778,35.174,165.787,35.174z M148.06,35.174
			c2.012,0,3.642,1.63,3.642,3.64s-1.63,3.641-3.642,3.641c-2.008,0-3.639-1.63-3.639-3.641S146.052,35.174,148.06,35.174z
			 M130.551,35.174c2.009,0,3.64,1.63,3.64,3.64s-1.631,3.641-3.64,3.641s-3.64-1.63-3.64-3.641S128.542,35.174,130.551,35.174z
			 M113.012,35.174c2.011,0,3.642,1.63,3.642,3.64s-1.631,3.641-3.642,3.641c-2.009,0-3.64-1.63-3.64-3.641
			S111.002,35.174,113.012,35.174z M95.477,35.174c2.008,0,3.638,1.63,3.638,3.64s-1.63,3.641-3.638,3.641
			c-2.011,0-3.642-1.63-3.642-3.641S93.466,35.174,95.477,35.174z M77.939,35.174c2.009,0,3.638,1.63,3.638,3.64
			s-1.629,3.641-3.638,3.641c-2.012,0-3.642-1.63-3.642-3.641S75.927,35.174,77.939,35.174z M60.401,35.174
			c2.009,0,3.64,1.63,3.64,3.64s-1.631,3.641-3.64,3.641c-2.011,0-3.64-1.63-3.64-3.641S58.39,35.174,60.401,35.174z"/>
		<path fill="#FFF1CC" d="M62.767,24.616l0.025,0.002h33.509v0.001h56.377l0.194,0.005c0.328,0,0.593-0.266,0.593-0.595
			c0-0.035,0-0.069-0.007-0.103l-0.005-0.053c-0.346-1.684-1.836-2.952-3.622-2.952H112.57l-0.078-0.001h-1.699
			c-1.146,0-2.145-0.622-2.676-1.547l-0.011-0.02c-0.522-0.964-1.542-1.617-2.714-1.617h-1.7h-0.102H69.014
			c-3.576,0-6.511,2.723-6.849,6.208l-0.001,0.024c-0.003,0.014-0.003,0.028-0.003,0.042C62.16,24.345,62.433,24.616,62.767,24.616z
			 M99.803,20.733c0-0.507,0.413-0.921,0.921-0.921h3.014c0.506,0,0.921,0.415,0.921,0.921v0.877c0,0.508-0.415,0.922-0.921,0.922
			h-3.014c-0.508,0-0.921-0.415-0.921-0.922V20.733z M91.766,20.733c0-0.507,0.417-0.921,0.923-0.921h3.014
			c0.506,0,0.921,0.415,0.921,0.921v0.877c0,0.508-0.415,0.922-0.921,0.922h-3.014c-0.506,0-0.923-0.415-0.923-0.922V20.733z
			 M83.777,20.733c0-0.507,0.413-0.921,0.922-0.921h3.013c0.506,0,0.92,0.415,0.92,0.921v0.877c0,0.508-0.414,0.922-0.92,0.922
			h-3.013c-0.509,0-0.922-0.415-0.922-0.922V20.733z M75.786,20.733c0-0.507,0.414-0.921,0.921-0.921h3.014
			c0.508,0,0.921,0.415,0.921,0.921v0.877c0,0.508-0.413,0.922-0.921,0.922h-3.014c-0.507,0-0.921-0.415-0.921-0.922V20.733z
			 M67.794,20.733c0-0.507,0.415-0.921,0.921-0.921h3.013c0.509,0,0.922,0.415,0.922,0.921v0.877c0,0.508-0.413,0.922-0.922,0.922
			h-3.013c-0.506,0-0.921-0.415-0.921-0.922V20.733z"/>
		<path fill="#FFF1CC" d="M35.158,55.765l0.02,0.001c3.679,0.013,7.045,1.877,9.002,4.99c0.35,0.557,0.631,1.146,0.841,1.761
			c1.449,0.244,2.816,0.746,4.029,1.488l0.007,0.003l0.008,0.006l0.006,0.003c1.038,0.631,2.291,0.974,3.628,0.988h0.009
			c1.335-0.015,2.59-0.356,3.626-0.988l0.006-0.003l0.007-0.006l0.009-0.003c1.764-1.078,3.854-1.653,6.059-1.662h0.026
			c2.196,0.009,4.289,0.583,6.054,1.662l0.008,0.003l0.005,0.006l0.006,0.003c1.039,0.632,2.292,0.974,3.628,0.988h0.01
			c1.335-0.015,2.59-0.356,3.627-0.988l0.006-0.003l0.005-0.006l0.01-0.003c1.764-1.078,3.857-1.653,6.057-1.662h0.015h0.038h0.054
			c2.195,0.009,4.288,0.583,6.055,1.662l0.006,0.003l0.007,0.006l0.004,0.003c1.033,0.629,2.282,0.969,3.609,0.988
			c1.329-0.02,2.577-0.359,3.608-0.988l0.017-0.009l0.015-0.011l0,0c1.764-1.073,3.85-1.646,6.048-1.654h0.021h0.027h0.028
			c2.193,0.009,4.287,0.583,6.052,1.662l0.007,0.003l0.006,0.006l0.007,0.003c1.032,0.629,2.281,0.969,3.611,0.988
			c1.328-0.02,2.575-0.359,3.608-0.988l0.034-0.021l0.016-0.011c1.76-1.064,3.841-1.634,6.03-1.643h0.046h0.038h0.02
			c2.192,0.009,4.282,0.581,6.047,1.659l0.005,0.001l0.01,0.008l0.012,0.006c1.036,0.631,2.289,0.974,3.626,0.988
			c1.336-0.015,2.588-0.357,3.627-0.988l0.02-0.012l0.016-0.011c1.762-1.071,3.849-1.643,6.041-1.651h0.022h0.02
			c2.186,0.009,4.271,0.578,6.031,1.648l0.018,0.011l0.025,0.015c1.036,0.631,2.289,0.974,3.625,0.988
			c1.336-0.015,2.589-0.357,3.625-0.988l0.03-0.018l0.018-0.009c1.756-1.069,3.841-1.639,6.033-1.647h0.013h0.044h0.048
			c2.195,0.009,4.288,0.583,6.052,1.662l0.011,0.003l0.008,0.006l0.004,0.003c1.033,0.629,2.282,0.971,3.611,0.988
			c0.153-0.003,0.312-0.009,0.471-0.021l0.22-0.016c1.087-0.104,2.108-0.433,2.963-0.952l0.021-0.012l0.015-0.011
			c1.761-1.071,3.847-1.643,6.04-1.651h0.03c2.195,0.009,4.287,0.583,6.052,1.662l0.008,0.003l0.008,0.005l0.007,0.004
			c1.036,0.632,2.291,0.974,3.627,0.988h0.009c1.336-0.015,2.591-0.356,3.628-0.988l0.03-0.018l0.015-0.009
			c1.452-0.882,3.124-1.423,4.895-1.591c0.207-0.571,0.477-1.123,0.803-1.644c1.959-3.112,5.321-4.977,9.002-4.99l0.021-0.001
			c0.948-0.006,1.721-0.78,1.721-1.73c0-0.954-0.777-1.73-1.729-1.73h-19.757h-5.318h-19.754H79.996H60.239h-5.315H35.167
			c-0.954,0-1.732,0.776-1.732,1.73C33.435,54.988,34.213,55.764,35.158,55.765z"/>
		<path fill="#FFF1CC" d="M208.456,74.863c-1.803-0.018-3.465-0.506-4.799-1.32l-0.02-0.011c-1.354-0.829-3.045-1.325-4.88-1.331
			H198.7c-1.831,0.008-3.522,0.503-4.876,1.331l-0.018,0.011c-1.337,0.814-2.998,1.303-4.801,1.32h-0.032
			c-1.803-0.018-3.464-0.506-4.801-1.32l-0.018-0.011c-1.355-0.829-3.044-1.325-4.879-1.331h-0.022
			c-1.831,0.008-3.52,0.503-4.873,1.331l-0.019,0.011c-1.188,0.722-2.632,1.188-4.203,1.295v-0.001
			c-0.211,0.015-0.42,0.023-0.635,0.026c-1.803-0.02-3.46-0.508-4.797-1.32l-0.015-0.011c-1.357-0.829-3.048-1.325-4.882-1.331
			h-0.04h-0.044h-0.013c-1.832,0.008-3.522,0.503-4.876,1.331l-0.018,0.011c-1.337,0.814-2.998,1.303-4.801,1.32h-0.022
			c-1.803-0.018-3.463-0.506-4.8-1.32l-0.019-0.011c-1.354-0.829-3.044-1.325-4.878-1.331h-0.012h-0.009h-0.014
			c-1.831,0.008-3.519,0.503-4.874,1.331l-0.018,0.011c-1.336,0.814-3,1.303-4.802,1.32h-0.021c-1.803-0.018-3.463-0.506-4.8-1.32
			l-0.017-0.011c-1.355-0.829-3.047-1.325-4.879-1.331h-0.012h-0.038h-0.046c-1.831,0.008-3.524,0.503-4.876,1.331l-0.018,0.011
			c-1.337,0.812-2.993,1.301-4.793,1.319c-1.8-0.019-3.46-0.508-4.794-1.319l-0.018-0.011c-1.355-0.829-3.045-1.325-4.878-1.331
			h-0.021c-0.004,0-0.009,0-0.014,0s-0.007,0-0.013,0h-0.021c-1.833,0.008-3.523,0.503-4.877,1.331l-0.017,0.011
			c-1.337,0.812-2.993,1.3-4.794,1.319c-1.8-0.02-3.458-0.508-4.793-1.319l-0.017-0.011c-1.356-0.829-3.045-1.325-4.878-1.331H81.91
			h-0.038h-0.015c-1.831,0.008-3.521,0.503-4.877,1.331l-0.015,0.011c-1.339,0.814-2.999,1.303-4.804,1.32h-0.031
			c-1.803-0.018-3.465-0.506-4.8-1.32l-0.018-0.011c-1.355-0.829-3.045-1.325-4.878-1.331h-0.019
			c-1.834,0.008-3.523,0.503-4.878,1.331l-0.017,0.011c-1.337,0.814-3,1.303-4.8,1.32h-0.033c-1.804-0.018-3.463-0.506-4.803-1.32
			l-0.015-0.011c-1.354-0.829-3.046-1.325-4.88-1.331h-0.083c-1.834,0.008-3.523,0.503-4.876,1.331l-0.018,0.011
			c-1.337,0.814-2.998,1.303-4.8,1.32v3.887c1.803-0.018,3.463-0.506,4.8-1.32l0.018-0.009c1.354-0.83,3.042-1.323,4.876-1.333
			h0.083c1.834,0.006,3.526,0.503,4.88,1.333l0.015,0.009c1.34,0.814,2.999,1.303,4.803,1.32h0.033
			c1.801-0.018,3.463-0.506,4.8-1.32l0.017-0.009c1.355-0.83,3.044-1.323,4.878-1.333h0.019c1.833,0.006,3.523,0.503,4.878,1.333
			l0.018,0.009c1.335,0.814,2.998,1.303,4.8,1.32h0.031c0.008,0,0.012,0,0.017,0l0,0c1.801-0.018,3.463-0.506,4.799-1.32
			l0.018-0.009c1.356-0.83,3.045-1.323,4.876-1.333h0.038c1.833,0.006,3.523,0.503,4.878,1.333l0.017,0.009
			c1.337,0.814,2.999,1.303,4.802,1.32h0.033c0.003,0,0.004,0,0.004,0c0.005,0,0.006,0,0.011,0h0.031
			c1.803-0.018,3.464-0.506,4.802-1.32l0.017-0.009c1.351-0.826,3.035-1.322,4.863-1.333c1.828,0.011,3.514,0.503,4.865,1.333
			l0.018,0.009c1.335,0.814,2.998,1.303,4.8,1.32h0.035c0,0,0.004,0,0.007,0c0,0,0.003,0,0.006,0h0.033
			c1.803-0.018,3.463-0.506,4.802-1.32l0.015-0.009c1.355-0.83,3.044-1.323,4.878-1.333h0.038c1.835,0.006,3.524,0.503,4.88,1.333
			l0.018,0.009c1.337,0.814,2.998,1.303,4.801,1.32h0.01h0.021h0.011c1.804-0.018,3.464-0.506,4.803-1.32l0.017-0.009
			c1.354-0.83,3.044-1.323,4.877-1.333h0.009c1.834,0.006,3.522,0.503,4.88,1.333l0.015,0.009c1.339,0.814,2.999,1.303,4.802,1.32
			h0.012h0.022h0.011c1.803-0.018,3.463-0.506,4.802-1.32l0.017-0.009c1.355-0.83,3.044-1.323,4.878-1.333h0.044
			c1.836,0.006,3.524,0.503,4.88,1.333l0.018,0.009c1.336,0.814,2.999,1.303,4.802,1.32h0.031h0.003c0,0,0.002,0,0.007,0h0.029
			c1.803-0.018,3.464-0.506,4.802-1.32l0.019-0.009c1.354-0.83,3.042-1.323,4.873-1.333h0.022c1.835,0.006,3.523,0.503,4.879,1.333
			l0.018,0.009c1.337,0.814,2.998,1.303,4.801,1.32h0.032c1.803-0.018,3.464-0.506,4.801-1.32l0.018-0.009
			c1.354-0.83,3.045-1.323,4.876-1.333h0.058c1.835,0.006,3.525,0.503,4.88,1.333l0.02,0.009c1.334,0.814,2.996,1.303,4.799,1.32
			h0.031c0.216-0.003,0.429-0.012,0.64-0.026v-3.887c-0.211,0.015-0.424,0.023-0.64,0.026H208.456z"/>
		<path fill="#FFF1CC" d="M208.487,67.868h-0.031c-1.803-0.019-3.465-0.505-4.799-1.317l-0.02-0.013
			c-1.354-0.829-3.045-1.323-4.88-1.329H198.7c-0.556,0.001-1.098,0.049-1.62,0.138c-1.206,0.2-2.312,0.613-3.256,1.191
			l-0.018,0.013c-1.337,0.812-2.998,1.299-4.801,1.317h-0.032c-1.803-0.019-3.464-0.505-4.801-1.317l-0.018-0.013
			c-1.355-0.829-3.044-1.323-4.879-1.329h-0.022c-1.831,0.006-3.52,0.501-4.873,1.329l-0.019,0.013
			c-1.188,0.722-2.632,1.186-4.203,1.293v-0.001c-0.211,0.017-0.42,0.025-0.635,0.025c-1.803-0.019-3.46-0.506-4.797-1.317
			l-0.015-0.013c-1.357-0.829-3.048-1.323-4.882-1.329h-0.04h-0.044h-0.013c-1.832,0.006-3.522,0.501-4.876,1.329l-0.018,0.013
			c-1.337,0.812-2.998,1.299-4.801,1.317h-0.022c-1.803-0.019-3.463-0.505-4.8-1.317l-0.019-0.013
			c-1.354-0.829-3.044-1.323-4.878-1.329h-0.012h-0.009h-0.014c-1.831,0.006-3.519,0.501-4.874,1.329l-0.018,0.013
			c-1.336,0.812-3,1.299-4.802,1.317h-0.021c-1.803-0.019-3.463-0.505-4.8-1.317l-0.017-0.013c-1.355-0.829-3.047-1.323-4.879-1.329
			h-0.012h-0.038h-0.046c-1.831,0.006-3.524,0.501-4.876,1.329l-0.018,0.013c-1.337,0.812-2.993,1.299-4.793,1.317
			c-1.8-0.019-3.46-0.506-4.794-1.317l-0.018-0.013c-1.355-0.829-3.045-1.323-4.878-1.329h-0.021c-0.004,0-0.009,0-0.014,0
			s-0.007,0-0.013,0h-0.021c-1.833,0.006-3.523,0.501-4.877,1.329l-0.017,0.013c-1.337,0.812-2.993,1.299-4.794,1.317
			c-1.8-0.019-3.458-0.506-4.793-1.317l-0.017-0.013c-1.356-0.829-3.045-1.323-4.878-1.329H81.91h-0.038h-0.015
			c-1.831,0.006-3.521,0.501-4.877,1.329l-0.015,0.013c-1.339,0.812-2.999,1.299-4.804,1.317h-0.031
			c-1.803-0.019-3.465-0.505-4.8-1.317l-0.018-0.013c-1.355-0.829-3.045-1.323-4.878-1.329h-0.019
			c-1.834,0.006-3.523,0.501-4.878,1.329L57.52,66.55c-1.337,0.812-3,1.299-4.8,1.317h-0.033c-1.804-0.019-3.463-0.505-4.803-1.317
			l-0.015-0.013c-0.713-0.437-1.523-0.778-2.396-1.009c-0.781-0.205-1.615-0.317-2.484-0.32h-0.083
			c-1.834,0.006-3.523,0.501-4.876,1.329l-0.018,0.013c-1.337,0.812-2.998,1.299-4.8,1.317v3.89c1.803-0.018,3.463-0.508,4.8-1.32
			l0.018-0.012c1.354-0.827,3.042-1.322,4.876-1.33h0.083c1.834,0.006,3.526,0.502,4.88,1.33l0.015,0.012
			c1.34,0.812,2.999,1.303,4.803,1.32h0.033c1.801-0.018,3.463-0.508,4.8-1.32l0.017-0.012c1.355-0.827,3.044-1.322,4.878-1.33
			h0.019c1.833,0.006,3.523,0.502,4.878,1.33l0.018,0.012c1.335,0.812,2.998,1.303,4.8,1.32h0.031c0.008,0,0.012,0,0.017,0l0,0
			c1.801-0.018,3.463-0.508,4.799-1.32l0.018-0.012c1.356-0.827,3.045-1.322,4.876-1.33h0.038c1.833,0.006,3.523,0.502,4.878,1.33
			l0.017,0.012c1.337,0.812,2.999,1.303,4.802,1.32h0.033c0.003,0,0.004,0,0.004,0c0.005,0,0.006,0,0.011,0h0.031
			c1.803-0.018,3.464-0.508,4.802-1.32l0.017-0.012c1.351-0.827,3.035-1.319,4.863-1.33c1.828,0.009,3.514,0.503,4.865,1.33
			l0.018,0.012c1.335,0.812,2.998,1.303,4.8,1.32h0.035c0,0,0.004,0,0.007,0c0,0,0.003,0,0.006,0h0.033
			c1.803-0.018,3.463-0.508,4.802-1.32l0.015-0.012c1.355-0.827,3.044-1.322,4.878-1.33h0.038c1.835,0.006,3.524,0.502,4.88,1.33
			l0.018,0.012c1.337,0.812,2.998,1.303,4.801,1.32h0.01h0.021h0.011c1.804-0.018,3.464-0.508,4.803-1.32l0.017-0.012
			c1.354-0.827,3.044-1.322,4.877-1.33h0.009c1.834,0.006,3.522,0.502,4.88,1.33l0.015,0.012c1.339,0.812,2.999,1.303,4.802,1.32
			h0.012h0.022h0.011c1.803-0.018,3.463-0.508,4.802-1.32l0.017-0.012c1.355-0.827,3.044-1.322,4.878-1.33h0.044
			c1.836,0.006,3.524,0.502,4.88,1.33l0.018,0.012c1.336,0.812,2.999,1.303,4.802,1.32h0.031h0.003c0,0,0.002,0,0.007,0h0.029
			c1.803-0.018,3.464-0.508,4.802-1.32l0.019-0.012c1.354-0.827,3.042-1.322,4.873-1.33h0.022c1.835,0.006,3.523,0.502,4.879,1.33
			l0.018,0.012c1.337,0.812,2.998,1.303,4.801,1.32h0.032c1.803-0.018,3.464-0.508,4.801-1.32l0.018-0.012
			c1.354-0.827,3.045-1.322,4.876-1.33h0.058c1.835,0.006,3.525,0.502,4.88,1.33l0.02,0.012c1.334,0.812,2.996,1.303,4.799,1.32
			h0.031c0.216-0.003,0.429-0.012,0.64-0.026v-3.889C208.916,67.859,208.703,67.868,208.487,67.868z"/>
		<path fill="#FFF1CC" d="M74.892,15.363h1.048c0.337,0,0.609-0.272,0.609-0.609V3.136c0-0.335-0.272-0.608-0.609-0.608h-1.048
			c-0.336,0-0.609,0.272-0.609,0.608v11.618C74.282,15.09,74.555,15.363,74.892,15.363z"/>
		<path fill="#FFF1CC" d="M87.749,3.2h-0.021c-1.087-0.011-2.092-0.307-2.902-0.798l-0.009-0.005
			c-0.819-0.502-1.842-0.801-2.95-0.805h-0.049c-1.108,0.004-2.129,0.303-2.948,0.805l-0.011,0.005
			c-0.216,0.132-0.448,0.25-0.691,0.351V3.48v5.186v0.729c0.243-0.102,0.475-0.218,0.691-0.35l0.011-0.007
			c0.819-0.502,1.84-0.8,2.948-0.804h0.049c1.108,0.003,2.131,0.302,2.95,0.804l0.009,0.007c0.81,0.492,1.814,0.787,2.902,0.797
			h0.021c0.744-0.007,1.448-0.15,2.077-0.395V8.719V3.533V2.805C89.197,3.05,88.493,3.192,87.749,3.2z"/>
	</g>
</g>
<g opacity="0.94">
	<circle fill="#5B4F4B" cx="136.212" cy="283.245" r="36.863"/>
	<polygon fill="#FFFFFF" points="123.397,303.771 158.946,283.245 123.397,262.719 	"/>
</g>
</svg>
