<svg xmlns="http://www.w3.org/2000/svg" width="161.506" height="70.277"><g fill="#FFF1CC"><path d="M0 60.592c0-.507.403-.911.926-.911.507 0 .91.404.91.911v4.417l4.954-4.984c.209-.224.433-.344.762-.344.507 0 .851.404.851.852 0 .283-.12.492-.329.686l-3.254 3.134 3.522 4.372c.148.194.253.373.253.657 0 .507-.402.895-.925.895-.358 0-.582-.179-.776-.433l-3.357-4.282-1.701 1.641v2.164c0 .508-.403.91-.91.91-.523 0-.926-.402-.926-.91v-8.775zM14.313 69.009l3.88-8.656c.209-.463.582-.746 1.104-.746h.09c.522 0 .88.283 1.089.746l3.88 8.656c.075.134.104.268.104.388 0 .492-.373.88-.865.88-.433 0-.731-.254-.896-.641l-.851-1.955h-5.074l-.88 2.014c-.149.373-.463.582-.851.582-.478 0-.851-.373-.851-.85.002-.135.047-.269.121-.418zm6.835-2.955l-1.836-4.224-1.835 4.224h3.671zM30.775 60.592c0-.507.403-.911.926-.911.507 0 .91.404.91.911v7.938h4.73c.463 0 .836.373.836.836s-.373.836-.836.836h-5.641c-.522 0-.926-.402-.926-.926v-8.684zM43.746 69.009l3.88-8.656c.209-.463.582-.746 1.104-.746h.09c.522 0 .88.283 1.089.746l3.88 8.656c.075.134.104.268.104.388 0 .492-.373.88-.865.88-.433 0-.731-.254-.896-.641l-.851-1.955h-5.074l-.88 2.014c-.149.373-.463.582-.851.582-.478 0-.851-.373-.851-.85.002-.135.047-.269.121-.418zm6.835-2.955l-1.836-4.224-1.835 4.224h3.671zM60.208 60.592c0-.507.403-.911.926-.911.507 0 .91.404.91.911v4.417l4.954-4.984c.209-.224.433-.344.762-.344.507 0 .851.404.851.852 0 .283-.12.492-.329.686l-3.253 3.135 3.522 4.372c.148.194.253.373.253.657 0 .507-.402.895-.925.895-.358 0-.582-.179-.776-.433l-3.357-4.282-1.701 1.641v2.164c0 .508-.403.91-.91.91-.522 0-.926-.402-.926-.91v-8.776zM74.521 69.009l3.88-8.656c.209-.463.582-.746 1.104-.746h.09c.522 0 .88.283 1.089.746l3.88 8.656c.075.134.104.268.104.388 0 .492-.373.88-.865.88-.433 0-.731-.254-.896-.641l-.851-1.955h-5.074l-.88 2.014c-.149.373-.463.582-.851.582-.478 0-.851-.373-.851-.85.002-.135.047-.269.121-.418zm6.835-2.955l-1.836-4.224-1.835 4.224h3.671zM90.984 60.592c0-.507.403-.911.926-.911.507 0 .91.404.91.911v7.938h4.73c.463 0 .836.373.836.836s-.373.836-.836.836h-5.64c-.522 0-.926-.402-.926-.926v-8.684zM103.954 69.009l3.88-8.656c.209-.463.582-.746 1.104-.746h.09c.522 0 .88.283 1.089.746l3.88 8.656c.075.134.104.268.104.388 0 .492-.373.88-.865.88-.433 0-.731-.254-.896-.641l-.851-1.955h-5.074l-.88 2.014c-.149.373-.463.582-.851.582-.478 0-.851-.373-.851-.85.002-.135.047-.269.121-.418zm6.835-2.955l-1.836-4.224-1.835 4.224h3.671zM128.76 65.009v-.029c0-2.971 2.223-5.402 5.387-5.402 1.611 0 2.671.478 3.582 1.179.193.149.357.403.357.731 0 .508-.402.895-.91.895-.254 0-.433-.089-.552-.179-.717-.581-1.492-.94-2.492-.94-1.985 0-3.447 1.643-3.447 3.687v.03c0 2.044 1.447 3.701 3.447 3.701 1.104 0 1.851-.359 2.611-1 .135-.12.328-.209.552-.209.463 0 .866.388.866.85 0 .284-.135.508-.299.657-.984.865-2.104 1.403-3.79 1.403-3.045-.001-5.312-2.374-5.312-5.374zM143.805 65.009v-.029c0-2.94 2.268-5.402 5.477-5.402 3.208 0 5.446 2.432 5.446 5.372v.03c0 2.939-2.268 5.402-5.477 5.402-3.208 0-5.446-2.433-5.446-5.373zm8.998 0v-.029c0-2.029-1.478-3.717-3.552-3.717s-3.521 1.657-3.521 3.687v.03c0 2.029 1.478 3.701 3.552 3.701s3.521-1.642 3.521-3.672zM160.461 68.069c.597 0 1.045.447 1.045 1.029v.149c0 .582-.448 1.029-1.045 1.029-.612 0-1.06-.447-1.06-1.029v-.149c0-.582.448-1.029 1.06-1.029z"/></g><path fill="#FFF1CC" d="M27.842 31.403l.019-.001h12.324l.018.001.019-.001h74.436l.02.001.018-.001h12.323l.019.001c.37 0 .671-.301.671-.672 0-.131-.038-.252-.102-.354l-.007-.014c-5.333-8.309-16.25-13.52-28.751-13.629l-.271-.001h-58.314c-7.232 0-13.096 5.863-13.096 13.096v.847l.001.056c0 .37.302.671.673.671zm78.944-9.5c1.312 0 2.375 1.063 2.375 2.374s-1.063 2.375-2.375 2.375c-1.311 0-2.374-1.063-2.374-2.375s1.064-2.374 2.374-2.374zm-11.562 0c1.312 0 2.375 1.063 2.375 2.374s-1.062 2.375-2.375 2.375c-1.31 0-2.373-1.063-2.373-2.375s1.063-2.374 2.373-2.374zm-11.419 0c1.311 0 2.374 1.063 2.374 2.374s-1.063 2.375-2.374 2.375-2.374-1.063-2.374-2.375 1.063-2.374 2.374-2.374zm-11.44 0c1.312 0 2.375 1.063 2.375 2.374s-1.063 2.375-2.375 2.375c-1.311 0-2.374-1.063-2.374-2.375s1.064-2.374 2.374-2.374zm-11.436 0c1.31 0 2.373 1.063 2.373 2.374s-1.063 2.375-2.373 2.375c-1.312 0-2.375-1.063-2.375-2.375s1.063-2.374 2.375-2.374zm-11.439 0c1.311 0 2.373 1.063 2.373 2.374s-1.062 2.375-2.373 2.375c-1.312 0-2.375-1.063-2.375-2.375s1.063-2.374 2.375-2.374zm-11.438 0c1.311 0 2.374 1.063 2.374 2.374s-1.063 2.375-2.374 2.375c-1.312 0-2.374-1.063-2.374-2.375s1.062-2.374 2.374-2.374z"/><path fill="#FFF1CC" d="M39.595 15.017l.017.001h21.855v.001h36.77l.127.003c.214 0 .387-.173.387-.388l-.005-.067-.003-.035c-.226-1.098-1.197-1.925-2.362-1.925h-25.462999999999997c-.747 0-1.398-.406-1.745-1.009l-.007-.013c-.341-.628-1.006-1.055-1.771-1.055h-23.726c-2.332 0-4.246 1.776-4.467 4.049l-.001.016-.002.027c0 .218.178.395.396.395zm24.155-2.533c0-.331.27-.601.601-.601h1.966c.33 0 .601.271.601.601v.572c0 .331-.271.602-.601.602h-1.966c-.331 0-.601-.271-.601-.602v-.572zm-5.241 0c0-.331.271-.601.602-.601h1.966c.33 0 .601.271.601.601v.572c0 .331-.271.602-.601.602h-1.967c-.33 0-.602-.271-.602-.602v-.572zm-5.211 0c0-.331.27-.601.602-.601h1.965c.33 0 .601.271.601.601v.572c0 .331-.271.602-.601.602h-1.965c-.332 0-.602-.271-.602-.602v-.572zm-5.212 0c0-.331.27-.601.601-.601h1.966c.331 0 .601.271.601.601v.572c0 .331-.27.602-.601.602h-1.966c-.331 0-.601-.271-.601-.602v-.572zm-5.212 0c0-.331.271-.601.601-.601h1.965c.332 0 .602.271.602.601v.572c0 .331-.27.602-.602.602h-1.965c-.33 0-.601-.271-.601-.602v-.572z"/><path fill="#FFF1CC" d="M21.588 35.333h.013c2.399.008 4.595 1.225 5.871 3.254.229.363.412.749.549 1.149.945.159 1.837.486 2.628.971l.005.002.005.004.004.002c.677.411 1.494.635 2.366.645h.006c.871-.01 1.689-.232 2.365-.645l.004-.002.005-.004.006-.002c1.15-.703 2.514-1.078 3.951-1.084h.018c1.432.006 2.797.38 3.948 1.084l.005.002.004.004.004.002c.678.412 1.495.635 2.366.645h.007c.87-.01 1.688-.232 2.365-.645l.004-.002.004-.004.006-.002c1.15-.703 2.516-1.078 3.95-1.084h.069c1.432.006 2.797.38 3.949 1.084l.004.002.005.004.003.002c.674.41 1.488.632 2.354.645.867-.013 1.681-.234 2.354-.645l.011-.006.01-.007c1.15-.7 2.511-1.073 3.944-1.079h.051000000000000004c1.431.006 2.796.38 3.947 1.084l.005.002.004.004.005.002c.673.41 1.487.632 2.354.645.866-.013 1.68-.234 2.354-.645l.021-.014.011-.007c1.147-.694 2.505-1.065 3.933-1.071h.067c1.43.006 2.793.379 3.944 1.082l.003.001.007.005.008.004c.676.411 1.493.635 2.365.645.871-.01 1.688-.233 2.365-.645l.013-.008.011-.007c1.148-.699 2.51-1.071 3.939-1.077h.027999999999999997c1.426.006 2.786.377 3.934 1.075l.012.007.017.01c.676.411 1.493.635 2.364.645.871-.01 1.688-.233 2.364-.645l.02-.012.012-.006c1.146-.697 2.505-1.068 3.935-1.074h.068c1.432.006 2.797.38 3.947 1.084l.007.002.005.004.003.002c.674.41 1.488.633 2.355.645l.307-.014.145-.01c.709-.068 1.374-.282 1.932-.621l.014-.008.01-.007c1.148-.699 2.509-1.071 3.939-1.077h.02c1.432.006 2.796.38 3.947 1.084l.005.002.005.003.005.003c.676.412 1.494.635 2.365.645h.006c.871-.01 1.689-.232 2.366-.645l.02-.012.01-.006c.947-.575 2.037-.928 3.192-1.037.135-.373.311-.732.523-1.073 1.277-2.029 3.471-3.246 5.871-3.254l.014-.001c.618-.004 1.122-.509 1.122-1.128 0-.622-.507-1.128-1.128-1.128h-112.324c-.622 0-1.129.506-1.129 1.128-.001.622.507 1.128 1.123 1.129z"/><path fill="#FFF1CC" d="M134.615 47.789c-1.176-.012-2.26-.33-3.13-.861l-.013-.007c-.884-.541-1.986-.864-3.183-.868h-.038c-1.194.005-2.297.328-3.18.868l-.012.007c-.872.531-1.955.85-3.131.861h-.021c-1.176-.012-2.259-.33-3.131-.861l-.012-.007c-.884-.541-1.985-.864-3.182-.868h-.015c-1.194.005-2.296.328-3.179.868l-.012.007c-.775.471-1.717.775-2.741.845v-.001l-.414.018c-1.176-.013-2.257-.331-3.129-.861l-.01-.007c-.885-.541-1.987-.864-3.184-.868h-.063c-1.194.005-2.297.328-3.18.868l-.012.007c-.872.531-1.955.85-3.131.861h-.015c-1.176-.012-2.259-.33-3.131-.861l-.012-.007c-.884-.541-1.985-.864-3.182-.868h-.023c-1.194.005-2.295.328-3.179.868l-.012.007c-.871.531-1.956.85-3.132.861h-.014c-1.176-.012-2.259-.33-3.131-.861l-.011-.007c-.884-.541-1.987-.864-3.183-.868h-.062c-1.194.005-2.298.328-3.181.868l-.012.007c-.872.529-1.952.849-3.126.86-1.174-.012-2.257-.331-3.127-.86l-.012-.007c-.884-.541-1.986-.864-3.182-.868h-.046c-1.195.005-2.298.328-3.181.868l-.011.007c-.872.529-1.952.848-3.127.86-1.174-.013-2.255-.331-3.126-.86l-.011-.007c-.885-.541-1.986-.864-3.182-.868h-.055c-1.194.005-2.297.328-3.181.868l-.01.007c-.873.531-1.956.85-3.133.861h-.021c-1.176-.012-2.26-.33-3.131-.861l-.01-.009c-.884-.541-1.986-.864-3.182-.868h-.013c-1.196.005-2.298.328-3.182.868l-.011.007c-.872.531-1.956.85-3.131.861h-.021c-1.177-.012-2.259-.33-3.133-.861l-.01-.007c-.883-.541-1.986-.864-3.183-.868h-.054c-1.196.005-2.298.328-3.181.868l-.012.007c-.872.531-1.955.85-3.131.861v2.535c1.176-.012 2.259-.33 3.131-.861l.012-.006c.883-.541 1.984-.863 3.181-.869h.054c1.196.004 2.3.328 3.183.869l.01.006c.874.531 1.956.85 3.133.861h.021c1.175-.012 2.259-.33 3.131-.861l.011-.006c.884-.541 1.985-.863 3.182-.869h.013c1.195.004 2.298.328 3.182.869l.012.006c.871.531 1.955.85 3.131.861h.032c1.175-.012 2.259-.33 3.13-.861l.012-.006c.885-.541 1.986-.863 3.181-.869h.024c1.195.004 2.298.328 3.182.869l.011.006c.872.531 1.956.85 3.132.861h.052000000000000005c1.176-.012 2.26-.33 3.132-.861l.011-.006c.881-.539 1.979-.862 3.172-.869 1.192.007 2.292.328 3.173.869l.012.006c.871.531 1.955.85 3.131.861h.052000000000000005c1.176-.012 2.259-.33 3.132-.861l.01-.006c.884-.541 1.985-.863 3.182-.869h.024c1.197.004 2.299.328 3.183.869l.012.006c.872.531 1.955.85 3.131.861h.029c1.176-.012 2.259-.33 3.132-.861l.011-.006c.883-.541 1.985-.863 3.181-.869h.006c1.196.004 2.298.328 3.183.869l.01.006c.873.531 1.956.85 3.132.861h.03c1.176-.012 2.259-.33 3.132-.861l.011-.006c.884-.541 1.985-.863 3.182-.869h.028c1.197.004 2.299.328 3.183.869l.012.006c.871.531 1.956.85 3.132.861h.047c1.176-.012 2.26-.33 3.132-.861l.012-.006c.883-.541 1.984-.863 3.179-.869h.015c1.196.004 2.298.328 3.182.869l.012.006c.872.531 1.955.85 3.131.861h.021c1.176-.012 2.259-.33 3.131-.861l.012-.006c.883-.541 1.985-.863 3.18-.869h.038c1.196.004 2.299.328 3.183.869l.013.006c.87.531 1.954.85 3.13.861h.021l.417-.018v-2.535l-.417.018h-.034z"/><path fill="#FFF1CC" d="M134.636 43.226h-.021c-1.176-.012-2.26-.329-3.13-.859l-.013-.008c-.884-.541-1.986-.863-3.183-.867h-.038c-.362.001-.716.032-1.057.09-.786.131-1.508.4-2.123.777l-.012.008c-.872.53-1.955.848-3.131.859h-.021c-1.176-.012-2.259-.329-3.131-.859l-.012-.008c-.884-.541-1.985-.863-3.182-.867h-.015c-1.194.004-2.296.327-3.179.867l-.012.008c-.775.471-1.717.773-2.741.844v-.001l-.414.017c-1.176-.012-2.257-.33-3.129-.859l-.01-.008c-.885-.541-1.987-.863-3.184-.867h-.063c-1.194.004-2.297.327-3.18.867l-.012.008c-.872.53-1.955.848-3.131.859h-.015c-1.176-.012-2.259-.329-3.131-.859l-.012-.008c-.884-.541-1.985-.863-3.182-.867h-.023c-1.194.004-2.295.327-3.179.867l-.012.008c-.871.53-1.956.848-3.132.859h-.014c-1.176-.012-2.259-.329-3.131-.859l-.011-.008c-.884-.541-1.987-.863-3.183-.867h-.062c-1.194.004-2.298.327-3.181.867l-.012.008c-.872.529-1.952.848-3.126.859-1.174-.012-2.257-.33-3.127-.859l-.012-.008c-.884-.541-1.986-.863-3.182-.867h-.046c-1.195.004-2.298.327-3.181.867l-.011.008c-.872.529-1.952.848-3.127.859-1.174-.012-2.255-.33-3.126-.859l-.011-.008c-.885-.541-1.986-.863-3.182-.867h-.055c-1.194.004-2.297.327-3.181.867l-.01.008c-.873.53-1.956.848-3.133.859h-.021c-1.176-.012-2.26-.329-3.131-.859l-.012-.008c-.884-.541-1.986-.863-3.182-.867h-.013c-1.196.004-2.298.327-3.182.867l-.011.008c-.872.53-1.956.848-3.131.859h-.021c-1.177-.012-2.259-.329-3.133-.859l-.01-.008c-.465-.285-.993-.508-1.562-.658-.51-.134-1.054-.207-1.62-.209h-.054c-1.196.004-2.298.327-3.181.867l-.012.008c-.872.53-1.955.848-3.131.859v2.537c1.176-.012 2.259-.331 3.131-.861l.012-.008c.883-.539 1.984-.862 3.181-.867h.054c1.196.004 2.3.327 3.183.867l.01.008c.874.53 1.956.85 3.133.861h.021c1.175-.012 2.259-.331 3.131-.861l.011-.008c.884-.539 1.985-.862 3.182-.867h.013c1.195.004 2.298.327 3.182.867l.012.008c.871.53 1.955.85 3.131.861h.032c1.175-.012 2.259-.331 3.13-.861l.012-.008c.885-.539 1.986-.862 3.181-.867h.024c1.195.004 2.298.327 3.182.867l.011.008c.872.53 1.956.85 3.132.861h.052000000000000005c1.176-.012 2.26-.331 3.132-.861l.011-.008c.881-.539 1.979-.86 3.172-.867 1.192.006 2.292.328 3.173.867l.012.008c.871.53 1.955.85 3.131.861h.052000000000000005c1.176-.012 2.259-.331 3.132-.861l.01-.008c.884-.539 1.985-.862 3.182-.867h.024c1.197.004 2.299.327 3.183.867l.012.008c.872.53 1.955.85 3.131.861h.029c1.176-.012 2.259-.331 3.132-.861l.011-.008c.883-.539 1.985-.862 3.181-.867h.006c1.196.004 2.298.327 3.183.867l.01.008c.873.53 1.956.85 3.132.861h.03c1.176-.012 2.259-.331 3.132-.861l.011-.008c.884-.539 1.985-.862 3.182-.867h.028c1.197.004 2.299.327 3.183.867l.012.008c.871.53 1.956.85 3.132.861h.047c1.176-.012 2.26-.331 3.132-.861l.012-.008c.883-.539 1.984-.862 3.179-.867h.015c1.196.004 2.298.327 3.182.867l.012.008c.872.53 1.955.85 3.131.861h.021c1.176-.012 2.259-.331 3.131-.861l.012-.008c.883-.539 1.985-.862 3.18-.867h.038c1.196.004 2.299.327 3.183.867l.013.008c.87.53 1.954.85 3.13.861h.021l.417-.018v-2.536l-.429.016z"/><path fill="#FFF1CC" d="M47.503 8.982h.684c.22 0 .397-.178.397-.397v-7.578c0-.219-.178-.396-.397-.396h-.684c-.22 0-.397.178-.397.396v7.577c-.001.22.177.398.397.398z"/><path fill="#FFF1CC" d="M55.889 1.049h-.014c-.709-.007-1.364-.2-1.893-.521l-.006-.003c-.534-.328-1.201-.523-1.923-.525h-.032c-.723.003-1.389.198-1.923.525l-.007.003c-.142.086-.293.163-.451.229v4.333c.158-.066.31-.143.451-.229l.007-.004c.534-.327 1.2-.522 1.923-.524h.032c.723.002 1.39.197 1.924.524l.006.004c.528.321 1.184.513 1.893.52h.014c.485-.005.944-.098 1.354-.257v-4.332c-.411.159-.87.252-1.355.257z"/></svg>